<?xml version="1.0" standalone="no"?>
<!DOCTYPE svg PUBLIC "-//W3C//DTD SVG 20010904//EN"
 "http://www.w3.org/TR/2001/REC-SVG-20010904/DTD/svg10.dtd">
<svg version="1.0" xmlns="http://www.w3.org/2000/svg"
 width="200.000000pt" height="200.000000pt" viewBox="0 0 200.000000 200.000000"
 preserveAspectRatio="xMidYMid meet">

<g transform="translate(0.000000,200.000000) scale(0.100000,-0.100000)"
fill="#000000" stroke="none">
<path d="M408 1093 c-16 -4 -18 -19 -18 -124 0 -94 3 -121 14 -125 13 -5 195
92 221 117 6 6 4 14 -5 24 -14 13 -188 116 -193 114 -1 -1 -10 -3 -19 -6z"/>
<path d="M738 986 c2 -30 9 -57 15 -59 9 -3 11 13 9 54 -2 36 -8 59 -15 59 -8
0 -11 -18 -9 -54z"/>
<path d="M975 1031 l-40 -6 0 -50 c0 -45 2 -50 23 -50 12 0 22 3 22 8 0 4 -4
7 -10 7 -17 0 -11 28 8 33 16 4 16 5 0 6 -20 1 -24 26 -7 37 6 3 15 1 19 -6 6
-9 10 -8 19 6 8 16 10 9 11 -32 0 -32 5 -54 13 -57 9 -3 11 10 9 54 -3 37 -8
58 -15 57 -7 0 -30 -4 -52 -7z"/>
<path d="M1070 1030 c0 -5 5 -10 10 -10 6 0 10 5 10 10 0 6 -4 10 -10 10 -5 0
-10 -4 -10 -10z"/>
<path d="M1179 1031 c10 -6 12 -23 9 -58 -3 -32 -1 -50 6 -50 7 0 10 21 8 59
-3 46 -7 58 -20 58 -14 0 -14 -2 -3 -9z"/>
<path d="M655 977 c0 -43 3 -53 17 -53 12 0 14 4 8 10 -16 16 -12 23 14 30 49
12 39 66 -13 66 -25 0 -26 -3 -26 -53z m50 18 c0 -10 -6 -20 -12 -22 -8 -3
-13 5 -13 22 0 17 5 25 13 23 6 -3 12 -13 12 -23z"/>
<path d="M808 989 c14 -16 16 -49 2 -49 -5 0 -10 5 -10 10 0 6 -5 10 -11 10
-6 0 -9 -7 -7 -17 3 -17 55 -26 64 -11 3 4 1 8 -5 8 -5 0 -9 12 -8 27 2 20 -3
28 -18 31 -16 3 -18 1 -7 -9z"/>
<path d="M868 959 c15 -39 15 -42 -3 -55 -14 -11 -15 -14 -4 -14 9 0 27 24 41
55 19 41 22 55 12 55 -8 0 -13 -3 -13 -7 1 -5 1 -16 0 -25 -2 -28 -21 -21 -21
7 0 15 -6 25 -14 25 -12 0 -12 -7 2 -41z"/>
<path d="M1065 961 c0 -27 4 -37 13 -34 6 3 12 20 12 39 0 21 -5 34 -12 34 -8
0 -13 -14 -13 -39z"/>
<path d="M1122 988 c-17 -17 -15 -43 3 -58 12 -10 19 -10 27 -2 9 9 8 12 -5
12 -11 0 -17 8 -17 25 0 26 15 34 22 13 3 -7 7 -6 11 5 8 20 -22 24 -41 5z"/>
<path d="M1223 993 c4 -3 2 -12 -4 -19 -12 -14 4 -54 21 -54 15 0 12 16 -5 30
-14 12 -14 15 1 31 16 18 16 19 -1 19 -10 0 -15 -3 -12 -7z"/>
<path d="M1273 984 c-4 -10 1 -22 12 -30 10 -8 16 -17 12 -20 -4 -4 -13 -1
-22 6 -11 9 -15 9 -15 1 0 -18 29 -25 46 -10 15 12 14 15 -5 30 -24 20 -28 34
-6 25 8 -3 15 -1 15 4 0 17 -30 11 -37 -6z"/>
</g>
</svg>
